<svg viewBox="0 0 162 184" xmlns="http://www.w3.org/2000/svg"><defs><pattern id="a" width="100" height="180" patternTransform="matrix(.69 0 0 .69 956.66 -319.54)" patternUnits="userSpaceOnUse"><path fill="none" d="M0 0h100v180H0z"/><path d="M128.38 225l-52.25-90-2.28 3.91L123.83 225l-49.98 86.09-2.27-3.91L119.29 225h-.01.01l-47.71-82.17-2.27 3.91L114.74 225l-45.43 78.26-2.27-3.91L110.2 225l-43.16-74.35-2.27 3.92L105.66 225l-40.89 70.44-2.28-3.92L101.11 225l-38.62-66.52-2.27 3.91L96.57 225l-36.35 62.61-2.27-3.91L92.03 225h-.01.01l-34.08-58.69-2.27 3.91L87.48 225l-31.8 54.78-2.27-3.91L82.94 225l-29.53-50.87-2.27 3.91L78.39 225l-27.25 46.96-2.27-3.91L73.85 225l-24.99-43.04-2.27 3.91L69.31 225l-22.72 39.13.26.44-2.53-4.35L64.77 225h-.01.01l-20.45-35.22-2.27 3.91L60.22 225l-18.17 31.31-2.43-4.2.16.28L55.68 225h-.02.02l-15.9-27.39-2.27 3.91L51.13 225l-13.62 23.48-2.28-3.91L46.59 225l-11.36-19.57-2.27 3.92L42.05 225l-9.09 15.65-2.27-3.91L37.51 225h-.01.01l-6.82-11.74-2.27 3.91 4.54 7.83-4.54 7.83-2.27-3.92 2.27-3.91h-4.54l-2.28 3.91L71.58 315 21.6 401.09l2.28 3.91 52.24-90h.01l52.25-90z"/><path d="M28.38 225l-52.26-90-2.27 3.91L23.83 225l-49.98 86.09-2.27-3.91L19.29 225h-.01.01l-47.71-82.17-2.27 3.91L14.74 225l-45.43 78.26-2.27-3.91L10.2 225l-43.16-74.35-2.27 3.92L5.66 225l-40.89 70.44-2.28-3.92L1.11 225l-38.62-66.52-2.27 3.91L-3.43 225l-36.35 62.61-2.27-3.91L-7.97 225h-.02.02l-34.08-58.69-2.27 3.91 31.8 54.78-31.8 54.78-2.27-3.91L-17.06 225l-29.53-50.87-2.27 3.91L-21.61 225l-27.25 46.96-2.27-3.91L-26.15 225l-24.99-43.04-2.27 3.91L-30.69 225l-22.72 39.13.26.44-2.53-4.35L-35.23 225h-.01.01l-20.45-35.22-2.27 3.91L-39.78 225l-18.17 31.31-2.43-4.2.16.28 15.9-27.39h-.02.02l-15.9-27.39-2.27 3.91L-48.87 225l-13.62 23.48-2.28-3.91L-53.41 225l-11.36-19.57-2.27 3.92 9.09 15.65-9.09 15.65-2.27-3.91 6.82-11.74h-.01.01l-6.82-11.74-2.27 3.91 4.54 7.83-4.54 7.83-2.27-3.92 2.27-3.91h-4.55l-2.27 3.91L-28.42 315l-49.98 86.09 2.27 3.91 52.25-90 52.26-90zm102.31-90l-29.53-50.87-2.27 3.91L126.14 135l-27.25 46.96 2.27 3.91L130.69 135z"/><path d="M121.6 135L96.61 91.96l-2.27 3.91 22.72 39.12-21.61 37.22 1.16 5.83L121.6 135z"/><path d="M112.51 135h.01L92.07 99.78l-2.27 3.91L107.97 135 89.8 166.31l2.27 3.91L112.52 135h-.01zm-27.26 0l-6.81-11.74-2.27 3.91 4.54 7.83-4.54 7.83 2.27 3.91L85.25 135z"/><path d="M103.42 135h.01l-15.9-27.39-2.27 3.91L98.88 135l-13.62 23.48 2.27 3.91 15.9-27.39h-.01z"/><path d="M94.34 135l-11.36-19.57-2.27 3.92L89.8 135l-9.09 15.65 2.27 3.92L94.34 135z"/><path d="M128.38 45L76.13-45l-2.28 3.91L123.83 45l-49.98 86.09-2.27-3.92L119.29 45h-.01.01L71.58-37.17l-2.27 3.91L114.74 45l-45.43 78.26-2.27-3.91L110.2 45 67.04-29.35l-2.27 3.92L105.66 45l-40.89 70.44-2.28-3.92L101.11 45 62.49-21.52l-2.27 3.91L96.57 45l-36.35 62.61-2.27-3.91L92.03 45h-.01.01L57.95-13.7l-2.27 3.92L87.48 45l-31.8 54.78-2.27-3.91L82.94 45 53.41-5.87l-2.27 3.91L78.39 45 51.14 91.96l-2.27-3.91L73.85 45 48.86 1.96l-2.27 3.91L69.31 45 46.59 84.13l.26.44-2.53-4.35L64.77 45h-.01.01L44.32 9.78l-2.27 3.92L60.22 45 42.05 76.31l-2.43-4.2.16.28L55.68 45h-.02.02l-15.9-27.39-2.27 3.91L51.13 45 37.51 68.48l-2.28-3.91L46.59 45 35.23 25.43l-2.27 3.92L42.05 45l-9.09 15.65-2.27-3.91L37.51 45h-.01.01l-6.82-11.74-2.27 3.91L32.96 45l-4.54 7.83-2.27-3.92L28.42 45h-4.54l-2.28 3.91L71.58 135 21.6 221.09l2.28 3.91 52.24-90h.01l52.25-90z"/><path d="M30.69 135L1.16 84.13l-2.27 3.91L26.14 135l-27.25 46.96 2.27 3.91L30.69 135z"/><path d="M39.77 135h.01L5.7 76.31l-2.27 3.91L35.23 135l-31.8 54.78 2.27 3.91L39.78 135h-.01z"/><path d="M21.6 135L-3.39 91.96l-2.27 3.91 22.71 39.12-21.6 37.22 1.16 5.83L21.6 135z"/><path d="M12.51 135h.01L-7.93 99.78l-2.27 3.91L7.97 135l-18.17 31.31 2.27 3.91L12.52 135h-.01z"/><path d="M48.86 135L10.24 68.48l-2.27 3.91L44.32 135 7.97 197.61l2.27 3.91L48.86 135z"/><path d="M57.95 135L14.79 60.65l-2.27 3.92L53.41 135l-40.89 70.43 2.27 3.92L57.95 135z"/><path d="M67.03 135h.01L19.33 52.83l-2.27 3.91L62.49 135l-45.43 78.26 2.27 3.91L67.04 135h-.01zM26.15 41.09L23.88 45h4.54l-2.27-3.91zM-14.74 135l-6.82-11.74-2.27 3.91 4.54 7.83-4.54 7.83 2.27 3.91 6.82-11.74zm18.16 0h.01l-15.9-27.39-2.27 3.91L-1.12 135l-13.62 23.48 2.27 3.91L3.43 135h-.01z"/><path d="M-5.66 135l-11.36-19.57-2.27 3.92L-10.2 135l-9.09 15.65 2.27 3.92L-5.66 135z"/><path d="M28.38 45l-52.26-90-2.27 3.91L23.83 45l-49.98 86.09-2.27-3.92L19.29 45h-.01.01l-47.71-82.17-2.27 3.91L14.74 45l-45.43 78.26-2.27-3.91L10.2 45l-43.16-74.35-2.27 3.92L5.66 45l-40.89 70.44-2.28-3.92L1.11 45l-38.62-66.52-2.27 3.91L-3.43 45l-36.35 62.61-2.27-3.91L-7.97 45h-.02.02l-34.08-58.7-2.27 3.92L-12.52 45l-31.8 54.78-2.27-3.91L-17.06 45-46.59-5.87l-2.27 3.91L-21.61 45l-27.25 46.96-2.27-3.91L-26.15 45-51.14 1.96l-2.27 3.91L-30.69 45l-22.72 39.13.26.44-2.53-4.35L-35.23 45h-.01.01L-55.68 9.78l-2.27 3.92L-39.78 45l-18.17 31.31-2.43-4.2.16.28L-44.32 45h-.02.02l-15.9-27.39-2.27 3.91L-48.87 45l-13.62 23.48-2.28-3.91L-53.41 45l-11.36-19.57-2.27 3.92L-57.95 45l-9.09 15.65-2.27-3.91L-62.49 45h-.01.01l-6.82-11.74-2.27 3.91 4.54 7.83-4.54 7.83-2.27-3.92 2.27-3.91h-4.55l-2.27 3.91L-28.42 135l-49.98 86.09 2.27 3.91 52.25-90 52.26-90zm102.31-90l-29.53-50.87-2.27 3.91L126.14-45 98.89 1.96l2.27 3.91L130.69-45z"/><path d="M128.38-135l-52.25-90-2.28 3.91L123.83-135 73.85-48.91l-2.27-3.92L119.29-135h-.01.01l-47.71-82.17-2.27 3.91L114.74-135 69.31-56.74l-2.27-3.91L110.2-135l-43.16-74.35-2.27 3.92L105.66-135 64.77-64.56l-2.28-3.92L101.11-135l-38.62-66.52-2.27 3.91L96.57-135 60.22-72.39l-2.27-3.91L92.03-135h-.01.01l-34.08-58.69-2.27 3.91L87.48-135l-31.8 54.78-2.27-3.91L82.94-135l-29.53-50.87-2.27 3.91L78.39-135 51.14-88.04l-2.27-3.91L73.85-135l-24.99-43.04-2.27 3.91L69.31-135 46.59-95.87l.26.44-2.53-4.35L64.77-135h-.01.01l-20.45-35.22-2.27 3.91L60.22-135l-18.17 31.31-2.43-4.2.16.28L55.68-135h-.02.02l-15.9-27.39-2.27 3.91L51.13-135l-13.62 23.48-2.28-3.91L46.59-135l-11.36-19.57-2.27 3.92L42.05-135l-9.09 15.65-2.27-3.91L37.51-135h-.01.01l-6.82-11.74-2.27 3.91 4.54 7.83-4.54 7.83-2.27-3.92 2.27-3.91h-4.54l-2.28 3.91L71.58-45 21.6 41.09 23.88 45l52.24-90h.01l52.25-90z"/><path d="M30.69-45L1.16-95.87l-2.27 3.91L26.14-45-1.11 1.96l2.27 3.91L30.69-45z"/><path d="M39.77-45h.01L5.7-103.69l-2.27 3.91L35.23-45 3.43 9.78 5.7 13.7 39.78-45h-.01z"/><path d="M48.86-45l-38.62-66.52-2.27 3.91 36.35 62.6L7.97 17.61l2.27 3.91L48.86-45z"/><path d="M57.95-45l-43.16-74.35-2.27 3.92L53.41-45 12.52 25.43l2.27 3.92L57.95-45z"/><path d="M67.03-45h.01l-47.71-82.17-2.27 3.91L62.49-45 17.06 33.26l2.27 3.91L67.04-45h-.01z"/><path d="M28.38-135l-52.26-90-2.27 3.91L23.83-135l-49.98 86.09-2.27-3.92L19.29-135h-.01.01l-47.71-82.17-2.27 3.91L14.74-135l-45.43 78.26-2.27-3.91L10.2-135l-43.16-74.35-2.27 3.92L5.66-135l-40.89 70.44-2.28-3.92L1.11-135l-38.62-66.52-2.27 3.91L-3.43-135l-36.35 62.61-2.27-3.91L-7.97-135h-.02.02l-34.08-58.69-2.27 3.91 31.8 54.78-31.8 54.78-2.27-3.91L-17.06-135l-29.53-50.87-2.27 3.91L-21.61-135l-27.25 46.96-2.27-3.91L-26.15-135l-24.99-43.04-2.27 3.91L-30.69-135l-22.72 39.13.26.44-2.53-4.35L-35.23-135h-.01.01l-20.45-35.22-2.27 3.91L-39.78-135l-18.17 31.31-2.43-4.2.16.28 15.9-27.39h-.02.02l-15.9-27.39-2.27 3.91L-48.87-135l-13.62 23.48-2.28-3.91L-53.41-135l-11.36-19.57-2.27 3.92 9.09 15.65-9.09 15.65-2.27-3.91 6.82-11.74h-.01.01l-6.82-11.74-2.27 3.91 4.54 7.83-4.54 7.83-2.27-3.92 2.27-3.91h-4.55l-2.27 3.91L-28.42-45-78.4 41.09l2.27 3.91 52.25-90 52.26-90z"/></pattern><filter id="b" filterUnits="userSpaceOnUse" color-interpolation-filters="sRGB"><feColorMatrix values="-1 0 0 0 1 0 -1 0 0 1 0 0 -1 0 1 0 0 0 1 0"/></filter><mask id="c" x="-78.4" y="-251.93" width="601.23" height="796.05" maskUnits="userSpaceOnUse"><path style="mix-blend-mode:multiply" fill-opacity=".75" opacity=".6" fill="url(#a)" filter="url(#b)" d="M-47.62-251.93h570.46v796.05H-47.62z"/></mask></defs><g style="isolation:isolate"><path fill="#ffc657" d="M0 0h162v184H0z"/><g mask="url(#c)"><path style="mix-blend-mode:multiply" fill="#ffe49a" d="M0 0h162v184H0z"/></g><path d="M103.74 46.67L85.08 35.9a1.92 1.92 0 00-1.94 0L58.26 50.26a1.94 1.94 0 00-1 1.68v17.7a1.94 1.94 0 001 1.69 2 2 0 001.94 0l15.55-9a2 2 0 001-1.69V46.33l8.56 4.94v29.67L70.7 89.36a2 2 0 00-1 1.69v24.88a1.92 1.92 0 001 1.68 1.94 1.94 0 001.94 0l15.55-9a2 2 0 001-1.69V94l14.58-8.41a1.94 1.94 0 001-1.69V48.35a1.94 1.94 0 00-1.03-1.68zM69 61.79L65.06 64V50.82L69 48.58zm28 20.05a3.89 3.89 0 01-2 3.37l-13.61 7.86v15l-3.89 2.25V93.07a3.9 3.9 0 012-3.37l13.6-7.86V50.37l-13.66-7.85 3.89-2.25L95 47a3.91 3.91 0 011.94 3.37zm-16.18 41.21a1.94 1.94 0 00-2.75 0l-11 11a1.94 1.94 0 000 2.75l11 11a1.94 1.94 0 002.75 0l11-11a1.94 1.94 0 000-2.75zm-4.12 17.87l-2.7-2.75 8.24-8.25 2.75 2.75z" fill="#fff"/><rect x="12" y="12" width="138" height="160" rx="4" ry="4" stroke="#ffc657" stroke-miterlimit="10" stroke-width="2" fill="none"/></g></svg>